<svg version="1.1" xmlns="http://www.w3.org/2000/svg" xmlns:xlink="http://www.w3.org/1999/xlink" width="101.7874" height="81.19462" viewBox="0,0,101.7874,81.19462"><g transform="translate(-270.42559,-139.40269)"><g data-paper-data="{&quot;isPaintingLayer&quot;:true}" fill-rule="nonzero" stroke-linejoin="miter" stroke-miterlimit="10" stroke-dasharray="" stroke-dashoffset="0" style="mix-blend-mode: normal"><path d="M310.81349,181.09277c-1.11548,-9.4038 -1.83302,-18.87223 -2.11154,-28.30103c-0.06848,-2.36039 -2.44692,-5.84751 0.63416,-5.83355c12.31812,0.05603 24.94086,3.42129 37.02756,6.30471c6.85605,1.58621 16.91112,2.01559 20.462,7.00267c5.54292,8.26204 4.84337,18.55726 3.85381,27.81794c-0.392,3.36744 -4.25608,5.636 -7.25971,7.61573c-5.04288,3.33208 -11.0185,5.85016 -16.51546,8.07578c-9.39191,3.7602 -18.67462,8.99967 -28.68659,10.46661c-2.72795,0.39952 -2.9374,-3.40985 -3.58897,-5.73417c-2.42707,-8.99222 -2.74554,-18.37784 -3.81523,-27.4147z" fill="#a85b00" stroke="#a85b00" stroke-width="1.71047" stroke-linecap="round"/><path d="M312.52704,178.79442c-0.56288,-8.59339 -0.1302,-16.44275 1.02278,-22.18138c1.15378,-5.73869 3.02856,-9.36678 5.34908,-9.51878c2.32043,-0.15199 4.65244,3.20055 6.54493,8.7397c1.8917,5.5392 3.34458,13.26506 3.90745,21.85845c0.56288,8.59339 0.1302,16.44276 -1.02278,22.18139c-1.15378,5.73869 -3.02855,9.36688 -5.34897,9.51887c-2.32052,0.15199 -4.65255,-3.20065 -6.54504,-8.7398c-1.8917,-5.5392 -3.34457,-13.26506 -3.90744,-21.85845z" fill="#703d00" stroke="none" stroke-width="0.92352" stroke-linecap="butt"/><path d="M271.37663,181.254c-0.61118,-11.09217 5.53434,-22.06812 12.19887,-31.92569c3.43538,-4.40698 10.04046,-9.28942 16.79045,-9.00475c6.73617,0.28718 10.56556,4.00242 14.75403,11.03223c4.18977,7.03086 7.31899,16.8559 8.38986,27.80374c1.07088,10.94794 -0.11774,20.96238 -2.90215,28.29904c-2.7833,7.3357 -5.59219,12.36891 -12.47893,12.22683c-9.13744,-0.2482 -16.6378,-6.78289 -22.20726,-12.14941c-7.10486,-7.8875 -14.03829,-17.02267 -14.54487,-26.28199z" fill="#f0c444" stroke="#a85b00" stroke-width="1.81796" stroke-linecap="round"/><text transform="translate(287.08895,208.71328) scale(0.31623,0.31623)" font-size="40" xml:space="preserve" fill="#000000" fill-rule="nonzero" stroke="none" stroke-width="1" stroke-linecap="butt" stroke-linejoin="miter" stroke-miterlimit="10" stroke-dasharray="" stroke-dashoffset="0" font-family="Sans Serif" font-weight="normal" text-anchor="start" style="mix-blend-mode: normal"><tspan x="0" dy="0">BACK</tspan></text><text transform="translate(285.06972,185.18924) scale(0.74502,0.74502)" font-size="40" xml:space="preserve" fill="#000000" fill-rule="nonzero" stroke="none" stroke-width="1" stroke-linecap="butt" stroke-linejoin="miter" stroke-miterlimit="10" stroke-dasharray="" stroke-dashoffset="0" font-family="Sans Serif" font-weight="normal" text-anchor="start" style="mix-blend-mode: normal"><tspan x="0" dy="0">返回</tspan></text></g></g></svg>