<svg version="1.1" xmlns="http://www.w3.org/2000/svg" xmlns:xlink="http://www.w3.org/1999/xlink" width="143.41224" height="84.93451" viewBox="0,0,143.41224,84.93451"><g transform="translate(-248.29388,-137.71906)"><g data-paper-data="{&quot;isPaintingLayer&quot;:true}" fill-rule="nonzero" stroke-linecap="butt" stroke-linejoin="miter" stroke-miterlimit="10" stroke-dasharray="" stroke-dashoffset="0" style="mix-blend-mode: normal"><path d="M330.13135,163.71835v-25.99929h1.89578v25.99929z" fill="#737373" stroke="#000000" stroke-width="0"/><path d="M391.70612,198.58224c0,4.86912 -32.10392,8.81633 -71.70612,8.81633c-39.6022,0 -71.70612,-3.9472 -71.70612,-8.81633c0,-4.86912 32.10392,-8.81633 71.70612,-8.81633c39.6022,0 71.70612,3.9472 71.70612,8.81633z" fill="#00a722" stroke="none" stroke-width="NaN"/><text transform="translate(308.2449,218.9801) scale(0.29388,0.29388)" font-size="40" xml:space="preserve" fill="#ffffff" fill-rule="nonzero" stroke="none" stroke-width="1" stroke-linecap="butt" stroke-linejoin="miter" stroke-miterlimit="10" stroke-dasharray="" stroke-dashoffset="0" font-family="Sans Serif" font-weight="normal" text-anchor="start" style="mix-blend-mode: normal"><tspan x="0" dy="0">城市</tspan></text><path d="M304.93223,167.44353v-13.88598h30.13554v13.88598z" fill="#fdcb00" stroke="none" stroke-width="0"/><path d="M287.50089,196.10183v-28.95375h64.99821v28.95375z" fill="#cca300" stroke="none" stroke-width="0"/><path d="M312.61384,195.95552v-14.47688c0,0 2.55983,-4.30377 6.71752,-4.4317c4.2988,-0.13226 7.46391,4.4317 7.46391,4.4317v14.47688z" fill="#735c00" stroke="none" stroke-width="0"/><path d="M307.86411,167.27462v-5.88251c0,0 1.04016,-1.74879 2.72959,-1.80077c1.74677,-0.05374 3.03287,1.80077 3.03287,1.80077v5.88251z" fill="#735c00" stroke="none" stroke-width="0"/><path d="M317.00036,167.25203v-5.88251c0,0 1.04016,-1.74879 2.72959,-1.80077c1.74677,-0.05374 3.03287,1.80077 3.03287,1.80077v5.88251z" fill="#735c00" stroke="none" stroke-width="0"/><path d="M325.84116,166.934v-5.88251c0,0 1.04016,-1.74879 2.72959,-1.80077c1.74677,-0.05374 3.03287,1.80077 3.03287,1.80077v5.88251z" fill="#735c00" stroke="none" stroke-width="0"/></g></g></svg>