<svg version="1.1" xmlns="http://www.w3.org/2000/svg" xmlns:xlink="http://www.w3.org/1999/xlink" width="755.08308" height="447" viewBox="0,0,755.08308,447"><g transform="translate(58.04154,43.5)"><g data-paper-data="{&quot;isPaintingLayer&quot;:true}" fill-rule="nonzero" stroke-linecap="butt" stroke-linejoin="miter" stroke-miterlimit="10" stroke-dasharray="" stroke-dashoffset="0" style="mix-blend-mode: normal"><path d="M-38.95846,367.5v-411h697v411z" fill="#000000" stroke="none" stroke-width="0"/><path d="M-51.95846,403.5l130,-262h482l137,262z" fill="#ab591a" stroke="none" stroke-width="0"/><g fill="#2b2b2b" stroke="#000000" stroke-width="2"><path d="M-54.38613,358.05606l84.73209,-223.99633c0,0 16.90203,-12.55943 32.52727,-4.698c13.85064,6.96859 21.01552,28.86081 21.01552,28.86081l-84.73209,223.99633z"/><path d="M-1.67814,384.42573c-5.53256,14.62579 -22.00355,21.07329 -36.78898,14.40092c-14.78543,-6.67238 -22.28637,-23.93795 -16.75381,-38.56373c5.53256,-14.62579 22.00355,-21.07329 36.78898,-14.40092c14.78543,6.67238 22.28637,23.93795 16.75381,38.56373z"/></g><path d="M571.21412,396.15199c0,2.5 -2.5,2.5 -2.5,2.5l-1.85936,-0.26393c-3.35544,-1.71432 -5.30265,-3.63629 -7.93321,-6.27802c-5.59133,-4.18006 -12.11555,-6.11405 -17.18021,-11.24072c-1.907,-1.93036 -2.87615,-4.78064 -4.61353,-6.85471c-2.54092,-3.03333 -5.17478,-5.89889 -7.98897,-8.71309c-2.01995,-2.01995 -4.17921,-4.89319 -6.80934,-6.22713c-3.96761,-2.01227 -9.07352,-1.26884 -13.43035,-1.98891c-3.16083,-0.79399 -6.2084,-2.5331 -9.43359,-2.93165c-1.11997,-0.1384 -2.30353,0.23614 -3.3843,-0.08854c-2.28592,-0.68673 -5.4203,-3.39219 -7.39138,-4.79982c-2.71407,-1.93823 -5.75077,-3.89264 -8.2956,-6.03808c-1.60065,-1.34944 -2.71768,-3.18553 -4.055,-4.79633c-2.66787,-3.21344 -6.10506,-6.60903 -9.28883,-9.28883c-3.74236,-3.14997 -8.29468,-4.58806 -11.86118,-8.15456c-4.53938,-3.02626 -8.38246,-7.06933 -13.51156,-9.28428c-3.56922,-1.54133 -7.91918,-1.63672 -11.61897,-2.87285c-3.45657,-1.15486 -6.12273,-3.02262 -9.29058,-4.61412c-1.26175,-0.63389 -2.72294,-0.85756 -3.91897,-1.6081c-6.33277,-3.97395 -9.54032,-12.02585 -13.51256,-18.12617c-1.07463,-4.11392 -2.29575,-8.05071 -3.76505,-12.0052c-0.41995,-1.13026 -1.28862,-2.08607 -1.57106,-3.25828c-0.98058,-4.06972 0.40731,-8.7726 -0.05471,-12.93054c-0.99659,-8.9688 -7.35552,-13.49279 -14.93932,-17.28469c-2.49478,-1.24739 -4.01796,-2.84421 -6.73107,-2.72009c-2.91245,0.7437 -6.19356,1.5953 -8.93128,2.77031c-3.5929,1.54205 -6.25366,3.50161 -10.40225,3.90817c-4.92856,0.48299 -9.13057,-1.63272 -13.89563,-2.23054c-1.06981,-0.13422 -2.19194,0.22781 -3.23422,-0.04815c-3.44557,-0.91225 -3.84424,-2.24015 -6.67054,-4.01311c-3.23795,-2.0312 -6.44121,-2.57036 -8.86834,-5.85412c-3.44446,-4.66014 -4.22959,-10.25182 -5.60026,-15.73978c-0.47685,-2.38198 -0.6579,-4.83991 -1.40824,-7.15037c-0.69732,-2.1472 -2.73276,-3.64737 -3.6242,-5.72151c-0.85694,-1.99386 -1.20498,-5.7449 -0.94033,-7.9978c0.41597,-3.54093 1.37261,-8.08635 2.29771,-11.48804c1.5871,-5.8359 4.27197,-11.72289 2.9397,-18.0264c-0.49676,-2.35036 -2.93511,-4.64433 -4.52391,-6.21985c0,0 -1.76777,-1.76777 0,-3.53553c1.76777,-1.76777 3.53553,0 3.53553,0c2.3319,2.34869 5.07812,5.22538 5.85462,8.60662c2.41408,10.51199 -3.77192,21.12099 -5.14112,31.27411c-0.68406,5.07257 2.83981,7.09909 4.33136,11.4857c0.07372,0.21679 1.46811,7.23091 1.55706,7.67611c1.22899,4.91102 1.89018,9.67057 4.77828,13.91317c1.70139,2.49934 5.0217,3.01772 7.44078,4.52441c1.09609,0.68269 3.59805,3.03512 5.19064,3.40012c0.87622,0.20082 1.80433,-0.15924 2.69637,-0.04815c4.29881,0.53536 8.38312,2.66993 12.79203,2.21741c3.61582,-0.37112 5.74024,-2.16449 8.87217,-3.50507c3.18262,-1.36228 6.97148,-2.33053 10.34313,-3.16028c4.38773,0.09724 5.78044,1.31169 9.57805,3.2105c6.13371,3.06685 13.15801,7.20743 15.99473,13.82719c1.83427,4.28046 1.69636,9.07904 1.69636,13.61389c0,2.03263 -0.58233,4.13134 -0.06688,6.09753c0.25478,0.97188 1.03832,1.73274 1.39424,2.67231c1.45263,3.83474 2.70148,7.69257 3.64819,11.71716c3.57234,5.20753 6.2159,12.5678 11.69245,15.97473c1.06098,0.66003 2.37554,0.80062 3.49426,1.35719c2.92653,1.45598 5.31104,3.22118 8.50119,4.28176c3.88871,1.29282 8.3319,1.45097 12.10339,3.05774c5.55765,2.36772 9.75516,6.72108 14.65874,9.99014c3.56943,3.56943 8.05704,5.00971 11.86118,8.15456c3.44098,2.84463 7.11152,6.54852 9.98559,9.98559c1.13316,1.35514 1.99308,2.97849 3.35824,4.09956c2.49992,2.05294 5.37459,3.93775 8.01352,5.8231c1.47774,1.05575 4.21681,3.63912 5.95244,4.09606c0.82129,0.21622 1.70372,-0.19505 2.54629,-0.08854c3.42735,0.43324 6.5075,2.17037 9.84082,2.99894c5.12135,0.86173 9.96911,0.09703 14.73995,2.45904c2.34049,1.15876 3.22241,2.32783 5.05184,4.15141c3.92237,3.90981 7.77135,7.80691 11.28544,12.04397c1.58332,1.90906 2.52448,4.75941 4.28235,6.48912c5.02537,4.94485 11.37999,6.83179 16.92068,10.99899c2.35345,2.34456 3.90209,4.12875 6.89327,5.58316l-0.37671,-0.26393c0,0 2.5,0 2.5,2.5z" fill="#2c8fc7" stroke="none" stroke-width="0.5"/><text transform="translate(405.98007,253.09036) rotate(43.9413) scale(0.5,0.5)" font-size="40" xml:space="preserve" fill="#000000" fill-rule="nonzero" stroke="none" stroke-width="1" stroke-linecap="butt" stroke-linejoin="miter" stroke-miterlimit="10" stroke-dasharray="" stroke-dashoffset="0" font-family="Sans Serif" font-weight="normal" text-anchor="start" style="mix-blend-mode: normal"><tspan x="0" dy="0">此路开辟中</tspan></text></g></g></svg>