<svg version="1.1" xmlns="http://www.w3.org/2000/svg" xmlns:xlink="http://www.w3.org/1999/xlink" width="130.47404" height="267.22501" viewBox="0,0,130.47404,267.22501"><g transform="translate(-174.83995,-46.38751)"><g data-paper-data="{&quot;isPaintingLayer&quot;:true}" fill-rule="nonzero" stroke-linejoin="miter" stroke-miterlimit="10" stroke-dasharray="" stroke-dashoffset="0" style="mix-blend-mode: normal"><path d="M179.28373,313.61252v-267.22501h123.18203v267.22501z" fill-opacity="0.01" fill="#000000" stroke="none" stroke-width="0" stroke-linecap="butt"/><path d="M206.75005,307.5l15.14285,-131.8421l37.78325,-0.15789l13.57389,132z" fill="#ffffff" stroke="#000000" stroke-width="2" stroke-linecap="butt"/><path d="M219.70027,204.11263l3.12142,-26.32765l35.83075,-0.14203l2.76735,26.1059c0,0 -7.51543,4.19603 -21.55904,4.50964c-12.48458,0.27879 -20.16049,-4.14586 -20.16049,-4.14586z" fill="#e6e6e6" stroke="#000000" stroke-width="0" stroke-linecap="butt"/><path d="M175.83995,136.84616c0,-33.30185 28.7599,-60.29833 64.23702,-60.29833c35.47712,0 64.23702,26.99649 64.23702,60.29833c0,33.30185 -28.7599,60.29833 -64.23702,60.29833c-35.47712,0 -64.23702,-26.99649 -64.23702,-60.29833z" fill="#ffffff" stroke="#000000" stroke-width="2" stroke-linecap="butt"/><path d="M176.56301,136.9c0,-0.72799 5.20666,55.91939 63.36046,56.93429c55.56352,0.9697 63.51358,-57.95314 63.51358,-56.93429c0,32.80479 -28.40173,59.39833 -63.43702,59.39833c-35.03529,0 -63.43702,-26.59354 -63.43702,-59.39833z" fill="#e6e6e6" stroke="#000000" stroke-width="0" stroke-linecap="butt"/><path d="M189.39018,137.27563c0,-12.968 10.51265,-23.48065 23.48065,-23.48065c12.968,0 23.48065,10.51265 23.48065,23.48065c0,12.968 -10.51265,23.48065 -23.48065,23.48065c-12.968,0 -23.48065,-10.51265 -23.48065,-23.48065z" fill="#ffffff" stroke="#000000" stroke-width="2" stroke-linecap="butt"/><path d="M199.12222,140.66667c0,-6.91894 6.20586,-12.52783 13.86117,-12.52783c7.65532,0 13.86118,5.6089 13.86118,12.52783c0,6.91894 -6.20587,12.52784 -13.86118,12.52784c-7.65532,0 -13.86116,-5.60891 -13.86116,-12.52784z" fill="#000000" stroke="none" stroke-width="0" stroke-linecap="butt"/><path d="M257.75,184.73727c0,0 -2.4197,5.2075 -20.78488,4.84494c-12.48943,-0.24656 -18.88179,-5.17828 -18.88179,-5.17828l-23.57629,-23.41416c0,0 13.79503,13.77066 43.09681,13.82561c28.29884,0.05306 48.67945,-13.49228 48.67945,-13.49228z" fill="#000000" stroke="#000000" stroke-width="2" stroke-linecap="round"/><path d="M256.84011,184.24223c0,0 -2.29283,4.93448 -19.69516,4.59093c-11.83463,-0.23363 -17.89185,-4.90679 -17.89185,-4.90679c0,0 -3.33041,-5.65413 18.2471,-5.08584c19.83513,0.5224 19.33991,5.4017 19.33991,5.4017z" fill="#ffffff" stroke="#000000" stroke-width="0" stroke-linecap="round"/><path d="M256.23721,178.6642c0,0 -2.20877,3.00357 -18.97309,2.67262c-11.40075,-0.22507 -17.23589,-4.7269 -17.23589,-4.7269l-9.77118,-6.37319c0,0 6.09281,5.59906 27.59012,5.37046c22.581,-0.24013 27.68613,-4.81618 27.68613,-4.81618z" fill="#ffffff" stroke="#000000" stroke-width="2" stroke-linecap="round"/><path d="M267.12926,160.75627c-12.968,0 -23.48065,-10.51265 -23.48065,-23.48065c0,-12.968 10.51265,-23.48065 23.48065,-23.48065c12.968,0 23.48065,10.51265 23.48065,23.48065c0,12.968 -10.51265,23.48065 -23.48065,23.48065z" data-paper-data="{&quot;index&quot;:null}" fill="#ffffff" stroke="#000000" stroke-width="2" stroke-linecap="butt"/><path d="M267.01669,152.19451c-7.28712,0 -13.19449,-5.31043 -13.19449,-11.86117c0,-6.55075 5.90738,-11.86117 13.19449,-11.86117c7.28712,0 13.1945,5.31043 13.1945,11.86117c0,6.55075 -5.90738,11.86117 -13.1945,11.86117z" data-paper-data="{&quot;index&quot;:null}" fill="#000000" stroke="none" stroke-width="0" stroke-linecap="butt"/><path d="M202.90379,106.85423c0,0 8.37453,-1.26418 13.4031,0.16069c5.02858,1.42488 10.44518,6.59683 10.44518,6.59683c0,0 -6.99902,-3.95332 -10.88243,-5.0537c-4.05831,-1.14994 -12.96585,-1.70382 -12.96585,-1.70382z" fill="#000000" stroke="none" stroke-width="0" stroke-linecap="butt"/><path d="M263.25434,108.91134c-3.85442,1.19798 -10.7515,5.32659 -10.7515,5.32659c0,0 5.28441,-5.30693 10.27546,-6.85819c4.99104,-1.55125 13.39479,-0.49871 13.39479,-0.49871c0,0 -8.89074,0.77838 -12.91875,2.03032z" data-paper-data="{&quot;index&quot;:null}" fill="#000000" stroke="none" stroke-width="0" stroke-linecap="butt"/><path d="M189.13528,137.24181c0,-12.96801 10.51265,-23.48065 23.48066,-23.48065c12.96801,0 23.48065,10.51264 23.48065,23.48065c0,0 -9.31888,-14.62498 -23.43307,-15.13879c-14.72884,-0.53619 -23.52823,15.7554 -23.52823,15.13879z" fill="#ffffff" stroke="#000000" stroke-width="2" stroke-linecap="butt"/><path d="M243.44686,137.26807c0,-12.96801 10.51264,-23.48065 23.48065,-23.48065c12.96801,0 23.48066,10.51264 23.48066,23.48065c0,0.60606 -7.37231,-15.02482 -22.92496,-15.131c-15.95251,-0.10891 -24.03635,15.131 -24.03635,15.131z" data-paper-data="{&quot;index&quot;:null}" fill="#ffffff" stroke="#000000" stroke-width="2" stroke-linecap="butt"/></g></g></svg>