<svg version="1.1" xmlns="http://www.w3.org/2000/svg" xmlns:xlink="http://www.w3.org/1999/xlink" width="321.5" height="297.04223" viewBox="0,0,321.5,297.04223"><g transform="translate(-80.01792,-46.38751)"><g data-paper-data="{&quot;isPaintingLayer&quot;:true}" fill-rule="nonzero" stroke-linejoin="miter" stroke-miterlimit="10" stroke-dasharray="" stroke-dashoffset="0" style="mix-blend-mode: normal"><path d="M179.28381,313.61252v-267.22501h123.18203v267.22501z" fill-opacity="0.01" fill="#000000" stroke="none" stroke-width="0" stroke-linecap="butt"/><path d="M206.75014,307.5l15.14285,-131.8421l37.78325,-0.15789l13.57389,132z" fill="#000000" stroke="#000000" stroke-width="2" stroke-linecap="butt"/><path d="M175.84004,136.84616c0,-33.30185 28.7599,-60.29833 64.23702,-60.29833c35.47712,0 64.23702,26.99649 64.23702,60.29833c0,33.30185 -28.7599,60.29833 -64.23702,60.29833c-35.47712,0 -64.23702,-26.99649 -64.23702,-60.29833z" fill="#000000" stroke="#000000" stroke-width="2" stroke-linecap="butt"/><path d="M227.50713,176.65643h25.10959" fill="none" stroke="#000000" stroke-width="2" stroke-linecap="round"/><path d="M210.99089,116.8944c0,-1.38071 1.11929,-2.5 2.5,-2.5c1.38071,0 2.5,1.11929 2.5,2.5c0,1.38071 -1.11929,2.5 -2.5,2.5c-1.38071,0 -2.5,-1.11929 -2.5,-2.5z" fill="#ffffff" stroke="none" stroke-width="0.5" stroke-linecap="butt"/><path d="M271.17494,129.74925c0,-1.38071 1.11929,-2.5 2.5,-2.5c1.38071,0 2.5,1.11929 2.5,2.5c0,1.38071 -1.11929,2.5 -2.5,2.5c-1.38071,0 -2.5,-1.11929 -2.5,-2.5z" fill="#ffffff" stroke="none" stroke-width="0.5" stroke-linecap="butt"/><path d="M280.26734,157.10052c0.31742,-0.61485 0.94226,-1.22002 2.17227,-1.22002c2.5,0 2.5,2.5 2.5,2.5l-1.6253,2.9263c-3.89105,1.45187 -7.75261,2.70793 -11.80131,3.64419c-10.0057,2.29715 -19.81431,9.51568 -30.22152,8.7722c-4.20931,-0.30071 -6.55703,-2.25493 -9.86571,-4.47217c-3.41438,-2.28808 -7.56382,-3.6351 -11.06886,-5.82232c-0.34023,-0.21231 -3.02168,-2.47308 -3.93454,-2.61506c-2.31285,-0.35972 -4.681,0.06688 -7.02166,0.06688c0,0 -2.5,0 -2.5,-2.5c0,-2.5 2.5,-2.5 2.5,-2.5c0.99277,0 7.75055,-0.01675 8.17043,0.06688c2.46059,0.4901 3.44692,1.99634 5.41444,3.22805c3.52915,2.20933 7.67693,3.5699 11.13497,5.8639c2.75465,1.82739 4.20255,3.4421 7.66363,3.70818c4.45798,0.34272 7.64933,-1.14861 11.6918,-2.75959c5.66363,-2.25703 10.93821,-4.52353 16.91274,-5.9089c3.38694,-0.77989 6.62948,-1.80177 9.87864,-2.97851z" fill="#ffffff" stroke="none" stroke-width="0.5" stroke-linecap="butt"/><text transform="translate(296.46308,90.60039) scale(0.5,0.5)" font-size="40" xml:space="preserve" fill="#ffffff" fill-rule="nonzero" stroke="none" stroke-width="1" stroke-linecap="butt" stroke-linejoin="miter" stroke-miterlimit="10" stroke-dasharray="" stroke-dashoffset="0" font-family="Sans Serif" font-weight="normal" text-anchor="start" style="mix-blend-mode: normal"><tspan x="0" dy="0">？</tspan></text><text transform="translate(80.26792,337.17974) scale(0.5,0.5)" font-size="40" xml:space="preserve" fill="#ffffff" fill-rule="nonzero" stroke="none" stroke-width="1" stroke-linecap="butt" stroke-linejoin="miter" stroke-miterlimit="10" stroke-dasharray="" stroke-dashoffset="0" font-family="Sans Serif" font-weight="normal" text-anchor="start" style="mix-blend-mode: normal"><tspan x="0" dy="0">这只是一个彩蛋，不会影响实际游玩</tspan></text></g></g></svg>